<svg xmlns="http://www.w3.org/2000/svg" viewBox="0 0 271.15 388.09"><defs><style>.cls-1{fill:#231f20;}.cls-2{fill:#e0c391;}.cls-3{fill:#54554b;}.cls-4{fill:#4c4022;}.cls-5{fill:#c6a779;}.cls-6{fill:none;stroke:#ad5526;stroke-linecap:round;stroke-miterlimit:10;stroke-width:6px;}</style></defs><title>joanna</title><g id="Layer_2" data-name="Layer 2"><g id="Art"><path class="cls-1" d="M101.62,0h67.91A101.62,101.62,0,0,1,271.15,101.62V338.55a49.53,49.53,0,0,1-49.53,49.53H49.53A49.53,49.53,0,0,1,0,338.55V101.62A101.62,101.62,0,0,1,101.62,0Z"/><path class="cls-2" d="M99.76,29.36H181.6A57.38,57.38,0,0,1,239,86.74V189.85A98.15,98.15,0,0,1,140.83,288h-.3a98.15,98.15,0,0,1-98.15-98.15V86.74A57.38,57.38,0,0,1,99.76,29.36Z"/><rect class="cls-3" x="91.85" y="107.66" width="51.11" height="14.04" rx="7.02"/><rect class="cls-3" x="181.7" y="107.66" width="51.11" height="14.04" rx="7.02"/><circle class="cls-4" cx="127.79" cy="159.7" r="8.04"/><circle class="cls-4" cx="208.47" cy="159.7" r="8.04"/><path class="cls-5" d="M171.92,189.06h.85A13.19,13.19,0,0,1,186,202.26v.13a8.46,8.46,0,0,1-8.46,8.46H167.18a8.46,8.46,0,0,1-8.46-8.46v-.13a13.19,13.19,0,0,1,13.19-13.19Z"/><path class="cls-6" d="M146.13,227.26s24,6.8,43.91.17"/><circle class="cls-1" cx="158.72" cy="221.54" r="1.87"/><path class="cls-1" d="M104.57,26.74h0a0,0,0,0,1,0,0v65a65.7,65.7,0,0,1-65.7,65.7h0a0,0,0,0,1,0,0v-65A65.7,65.7,0,0,1,104.57,26.74Z"/><path class="cls-1" d="M151.43,16.17H199a0,0,0,0,1,0,0V47.61a95.61,95.61,0,0,1-95.61,95.61H55.83a0,0,0,0,1,0,0V111.78A95.61,95.61,0,0,1,151.43,16.17Z"/><path class="cls-1" d="M197.49,19.11h0A55.49,55.49,0,0,1,253,74.6v92.77a0,0,0,0,1,0,0h0a55.49,55.49,0,0,1-55.49-55.49V19.11A0,0,0,0,1,197.49,19.11Z" transform="translate(450.47 186.47) rotate(-180)"/><rect class="cls-2" x="22.98" y="157.02" width="40.6" height="49.79" rx="15.32"/></g></g></svg>