<svg xmlns="http://www.w3.org/2000/svg" xmlns:xlink="http://www.w3.org/1999/xlink" viewBox="0 0 267.82 297.88"><defs><style>.cls-1{fill:url(#Orange_Yellow);}.cls-2{fill:url(#Orange_Yellow-2);}.cls-3{fill:url(#Orange_Yellow-3);}.cls-4{fill:url(#Orange_Yellow-4);}</style><linearGradient id="Orange_Yellow" x1="19.2" y1="193.75" x2="19.2" y2="188.38" gradientUnits="userSpaceOnUse"><stop offset="0" stop-color="#fff33b"/><stop offset="0.04" stop-color="#fee72e"/><stop offset="0.12" stop-color="#fed51b"/><stop offset="0.2" stop-color="#fdca10"/><stop offset="0.28" stop-color="#fdc70c"/><stop offset="0.67" stop-color="#f3903f"/><stop offset="0.89" stop-color="#ed683c"/><stop offset="1" stop-color="#e93e3a"/></linearGradient><linearGradient id="Orange_Yellow-2" x1="229.54" y1="145.11" x2="229.54" y2="144.96" xlink:href="#Orange_Yellow"/><linearGradient id="Orange_Yellow-3" x1="36.95" y1="179.69" x2="36.95" y2="178.67" xlink:href="#Orange_Yellow"/><linearGradient id="Orange_Yellow-4" x1="133.91" y1="297.88" x2="133.91" y2="0" xlink:href="#Orange_Yellow"/></defs><title>Logo</title><g id="Layer_2" data-name="Layer 2"><g id="Layer_1-2" data-name="Layer 1"><path class="cls-1" d="M20.22,192.77a8.12,8.12,0,0,0,2.15.95c.5.12.74-.12,1.18-.41.1-.32.18-.49.14-.59a8.82,8.82,0,0,0-1.79-1l-2-1-.24-.12-1.94-.94c-.73-.37-1.56-.81-2.43-1.3l-.58.44c1.56,1.22,2.68,2.07,3.34,2.55A23.29,23.29,0,0,0,20.22,192.77Z"/><path class="cls-2" d="M229.83,145.11V145l-.59,0Z"/><path class="cls-3" d="M39.7,178.67q-2.78.38-5.49,1a33.21,33.21,0,0,0,4.43-.4A4.83,4.83,0,0,0,39.7,178.67Z"/><path class="cls-4" d="M218.58,217.56c-2.26,3.93-4.6,7.6-7.16,11.45a11.78,11.78,0,0,1-3.37,3.77l-13.16.7c-.27-1.25-1.22-2.17-2.81-3a17.6,17.6,0,0,0-3-.85A24.94,24.94,0,0,0,185,229c-1.57-.25-2.46-.86-2.77-1.58s0-2.09,1.1-4.14a17.6,17.6,0,0,1,6.43-7.21c2.14-1.3,2.66-.76,1.81,1.62-.37,1.06-.4,1.78-.08,2.15s1.43.67,3.25,1c2.61.49,4.1.55,4.55.21s1-1.89,1.71-4.61a23.11,23.11,0,0,1,1.77-5,3.19,3.19,0,0,0,.53-2.24c-.13-.69-.46-1-1-.89-.77.27-1.08-.32-.95-1.61a8.14,8.14,0,0,1,1.55-3.79c1.08-1.52,1.8-2.15,2.17-1.91s2.19,0,5.42-1.32l3.8-1.5a6,6,0,0,1,2.35-.39c1.16.05,1.43,1.08.92,3a8.3,8.3,0,0,1-2.42,4.16,15.74,15.74,0,0,1-5.92,3.24,12.67,12.67,0,0,0-3.56,1.62,2.14,2.14,0,0,0-1,2,7.35,7.35,0,0,0,1.58,3,3.64,3.64,0,0,0,2.25,1.46,4.66,4.66,0,0,0,2.66-.8,15.72,15.72,0,0,0,4.52-4.41,117.67,117.67,0,0,0,7.4-12.79,108.57,108.57,0,0,0,6-13.59c.83-2.53,1.13-4.37.85-5.23a1.08,1.08,0,0,0-1.45-.5,3,3,0,0,0-1.77,1.51c-.46.82-.8,1.15-1,1s-1.51,1.27-4,3.57a43.48,43.48,0,0,1-7.93,6c-1.69.82-3.63,1.86-5.44,2.53a2.38,2.38,0,0,1-2.56-.16,1,1,0,0,1-.58-1.29,24.81,24.81,0,0,1,2.53-3.6,44.4,44.4,0,0,1,4.44-5.17c1-.92,1.72-1.25,2.1-.86s2.38-.69,5.19-2.84a52.51,52.51,0,0,0,4.19-3.7,57.5,57.5,0,0,0,4-4.41c1.1-1.34,2-2.49,2.65-3.5,0-1.06,0-2.13,0-3.2-1.19,2-2.07,3.53-2.67,4.37a21.61,21.61,0,0,1-2.77,3.3,14.58,14.58,0,0,1-3.46,2.55c-1.32.81-2.24,1-2.43.35a12.79,12.79,0,0,1-.11-5.35l.11-.91.21-1c.17-.65.2-1.17.41-1.81-1.52.94-3.09,1.86-4.69,2.75a52.49,52.49,0,0,0-5.77,3.41,11.68,11.68,0,0,0-1.73,3.1c-.91,1.92-1.08,3-1,3.38,0,0-1,.91-3,2.66s-3.4,2.7-4.18,2.84a3.77,3.77,0,0,1-2.91-1.2c-1-.79-1-1.7-.58-2.33.53-.87.63-1.5.3-1.91s.14-.92,1-1.62a8.18,8.18,0,0,1,2.75-1.46,7.34,7.34,0,0,0,2.73-1.45,43.8,43.8,0,0,0,3.7-3,12.92,12.92,0,0,1,1.37-1.23c.25-.13.49.08.81.59a1,1,0,0,0,1,.35,5.77,5.77,0,0,0,1.76-1l5.73-4c1.64-1.15,2.71-1.95,3.22-2.4a22.61,22.61,0,0,0,1.81-1.92l1.34-1.72c.5-.62.84-1.16,1.38-1.81a12,12,0,0,1,1.74-1.77,18.37,18.37,0,0,1,2.24-1.31l1.39-.69c0-.38,0-.75,0-1.12-1,.39-1,.34,0-.15,0-.51,0-1,0-1.54-1.52.39-3.14.77-4.92,1.1a33.35,33.35,0,0,0-4.87,1q-.19.08-.18.15c-.37.27.2.43,1.78.33,1.25-.09,1.74-.07,1.67.08a28,28,0,0,1-2.71,1.88c-1.65,1.09-2.86,1.94-3.83,2.51s-2.83,1.52-5.45,2.85-4.44,2.23-5.78,2.82-3,1.23-4.86,1.87a148.33,148.33,0,0,1-27.44,6.78q-6.75,1-13.48,1.56l3.3-16a23.48,23.48,0,0,1,5-1.75,3.31,3.31,0,0,0,2.13-1c.52-.54.54-1,.06-1.33-.73-.42-.52-1,.65-1.7a8.58,8.58,0,0,1,4-1.14c1.86-.1,2.79.06,2.8.49s1.56,1.62,4.34,3.37c.73.38,1.41.74,2.07,1.07s1.06.67,1.51,1a7.18,7.18,0,0,1,1.86,1.59c.52,1,0,1.82-1.81,2.62a8.49,8.49,0,0,1-4.79.7,17,17,0,0,1-6.28-2.63,9.76,9.76,0,0,0-3.41-1.8,2.11,2.11,0,0,0-2.15.48,7.66,7.66,0,0,0-1.43,3.15,5.28,5.28,0,0,0,.24,2.69,4.41,4.41,0,0,0,2.36,1.58,15,15,0,0,0,6.2.83,124.84,124.84,0,0,0,14.64-2.19,108.66,108.66,0,0,0,14.35-3.81c2.5-.93,4-1.8,4.65-2.62.29-.56,0-1-.55-1.45a2.86,2.86,0,0,0-2.3-.45c-.93.15-1.43.1-1.47-.14s-1.75-.45-5.31-.93c-1.72-.26-3.32-.61-5-1a42.87,42.87,0,0,1-4.57-1.44c-2-.74-3.52-1.67-5.41-2.57a1.94,1.94,0,0,1-1.39-2c-.19-.64,0-1,.54-1.18a27.26,27.26,0,0,1,4.42-.25,45.37,45.37,0,0,1,6.8.24c1.33.19,2,.53,2.05,1s1.85,1.32,5.45,2.1a41.63,41.63,0,0,0,5.49.91,58.33,58.33,0,0,0,5.85.36,39.36,39.36,0,0,0,7.87-.53c1-.22,2.07-.57,3.64-1a28.07,28.07,0,0,1,3.62-.7c0-.29,0-.57,0-.85-1.06.1-2.25.23-3.66.4-4.89.63-8,1.2-9.58,1.29a22,22,0,0,1-4.37-.12,15.94,15.94,0,0,1-4.1-1.21c-1.6-.56-2-1.2-1.77-1.77a3.56,3.56,0,0,1,1.22-1.37l1.17-1,1.7-1.07a13.26,13.26,0,0,1,1.68-.87,11.53,11.53,0,0,1,1.66-.73q-2.55-.88-5.11-1.91a58,58,0,0,0-6.25-2.34,11.36,11.36,0,0,0-3.5.51c-2,.46-3.07,1-3.23,1.28,0,0-1.32-.2-3.95-.68s-4.23-1-4.84-1.48a3.76,3.76,0,0,1-.89-2.94c0-1.23.66-1.81,1.45-1.84,1-.11,1.52-.42,1.68-.91s.79-.44,1.9-.18a8.24,8.24,0,0,1,2.85,1.24,7.58,7.58,0,0,0,2.85,1.22,45.69,45.69,0,0,0,4.64,1,11,11,0,0,1,1.8.32c.25.11.28.43.05.95a1,1,0,0,0,.39,1,6.41,6.41,0,0,0,1.87.75l6.73,2c1.92.57,3.21.91,3.88,1s1.55.19,2.61.26l2.16,0c.8,0,1.39,0,2.26,0a11.82,11.82,0,0,1,2.44.3,17.74,17.74,0,0,1,2.42.94l1.74.8,0-1.18c-.13-.09-.12-.1,0-.06,0-.89,0-1.78,0-2.67-.63-.5-1.24-1-1.89-1.51A38.18,38.18,0,0,0,224,135c-.12-.08-.19-.1-.22-.07-.43-.13-.19.39.89,1.52.91.92,1.16,1.28,1,1.31a31.6,31.6,0,0,1-3.12-1c-1.87-.64-3.29-1.07-4.33-1.48s-2.93-1.27-5.62-2.5-4.5-2.09-5.8-2.77-2.81-1.55-4.49-2.64a152.54,152.54,0,0,1-22.45-17.17q-5-4.59-9.65-9.48a12.89,12.89,0,0,1-2.94-4.07c-.47-1.2-.58-3.09-.5-5.95a24.4,24.4,0,0,1,.56-5.64,1.65,1.65,0,0,1,1.94-1.16c2.66.13,4.35-2.71,6.44-8.43.55-1.5,1.29-2.28,2.07-2.4s2.11.6,3.84,2.06a17.52,17.52,0,0,1,5.6,7.85c.73,2.28.13,2.71-2,1.37-1-.58-1.63-.76-2.05-.53s-1.07,1.12-1.67,2.89c-1,2.39-1.43,3.78-1.15,4.33s1.62,1.38,4.06,2.68a23.41,23.41,0,0,1,4.51,2.87A3.49,3.49,0,0,0,191,97.64c.68,0,1-.24,1-.81-.12-.83.49-1,1.78-.52a8.36,8.36,0,0,1,3.35,2.35c1.24,1.39,1.73,2.26,1.4,2.55s-.4,2.18.08,5.45c.72,3.29.93,5.25.66,6.36s-1.39,1-3.1.14a9,9,0,0,1-3.55-3.29,16.86,16.86,0,0,1-2-6.41,10.19,10.19,0,0,0-.8-3.74,2.13,2.13,0,0,0-1.72-1.39,4.08,4.08,0,0,0-1.34.17,8.21,8.21,0,0,0-1.93.62,4.59,4.59,0,0,0-1.87,1.79,4.26,4.26,0,0,0,.27,2.75,15.66,15.66,0,0,0,3.3,5.28,127.69,127.69,0,0,0,10.89,10,111.43,111.43,0,0,0,11.94,8.8c2.28,1.39,3.89,2,4.92,2.07.56-.12.72-.57.72-1.23a3.06,3.06,0,0,0-1.14-2c-.7-.62-1-1-.83-1.2s-.1-.49-.54-1.23l-2.12-3.39c-.84-1.44-1.71-3-2.41-4.49s-1.23-2.92-1.78-4.45c-.28-1-.51-1.92-.7-2.87s-.46-2-.62-3a2.4,2.4,0,0,1,.74-2.43c.43-.55.91-.63,1.36-.29a24.78,24.78,0,0,1,3,3.3,42.88,42.88,0,0,1,4.06,5.47c.65,1.15.76,1.86.34,2.21-.28.51.07,2.38,1.67,5.71a44.94,44.94,0,0,0,2.69,4.85c1.07,1.66,2.19,3.23,3.42,4.79a40.25,40.25,0,0,0,5.35,5.78c.52.43,1.26.95,2.1,1.56,0-.85,0-1.69,0-2.54-2.28-2.18-4-3.71-4.78-4.61a18.32,18.32,0,0,1-4.3-7.39c-.46-1.42-.38-2.28.19-2.44a11.19,11.19,0,0,1,1.8.16,8.81,8.81,0,0,1,1.53.39,12.08,12.08,0,0,1,1.86.61l1.7.72,1.64.88c-.62-1.77-1.16-3.46-1.67-5.18a55.53,55.53,0,0,0-2.06-6.33,13.34,13.34,0,0,0-2.62-2.48c-1.57-1.16-2.63-1.72-3-1.7,0,0-.67-1.16-1.93-3.52s-1.87-3.9-1.83-4.66a3.63,3.63,0,0,1,1.75-2.54c1-.65,1.78-.78,2.34-.06.72.74,1.31,1,1.79.82s.81.26,1.29,1.28a8.38,8.38,0,0,1,.82,3,8,8,0,0,0,.84,3,43.13,43.13,0,0,0,2.06,4.22,12.89,12.89,0,0,1,.87,1.59c.05.22-.15.53-.68.74a.83.83,0,0,0-.58.84,6,6,0,0,0,.57,1.91l2.32,5.67c-.11-31.74-1.54-71.44-.39-104.86,8.77-.8,39.45,5.18,38.66-7.18-.4-7.57-14.35-5.18-20.33-5.18-55.39,0-100.43-.4-149.84-1.59C83.29.12,67-2.27,67,8.09c0,8,32.68,6.38,42.64,6.38V161.13c0,15.54,0,31.88-.39,46.62-.8,17.14.39,33.88-2.4,46.23-7.57,30.29-58.18,34.28-72.13,10.76,22.72,1.6,37.86-4.78,45.83-17.93,9.56-15.14,6.77-43.44-2.79-55.8C71,182.68,60.62,178.79,49.8,178.24a1.21,1.21,0,0,0-.54.88c0,.31-.36.55-1.17.73a5.86,5.86,0,0,1-2.27.08,5.58,5.58,0,0,0-2.26.09,31.25,31.25,0,0,0-3.36.79,8.31,8.31,0,0,1-1.27.36c-.2,0-.33-.2-.35-.63A.61.61,0,0,0,38,180a4.45,4.45,0,0,0-1.47.09l-5,.82c-1.44.23-2.39.42-2.86.55a16.92,16.92,0,0,0-1.77.66l-1.45.7-1.49.77a9.17,9.17,0,0,1-1.67.65c-.14,0-.36.05-.57.07-1.15.61-2.29,1.23-3.36,1.91,1.17.22,2.41.48,3.75.84a26.92,26.92,0,0,0,3.53.84c.1,0,.16,0,.16,0,.32-.06,0-.35-1.09-.76-.79-.31-1.16-.47-1.06-.53a15.83,15.83,0,0,1,2.37-.31c1.41-.15,2.47-.3,3.28-.35s2.34-.06,4.48-.09,3.61,0,4.68,0,2.32.12,3.77.29a107.8,107.8,0,0,1,20.13,4c3.15.93,6.29,2,9.35,3.15l-3.16,13.23c.08-1.94-.25-3.07-.57-3.34s-1.5-.39-3.5-.44a16.47,16.47,0,0,1-3.84-.4,2.37,2.37,0,0,0-1.7,0c-.48.22-.71.49-.5.89s0,.87-1,1a6,6,0,0,1-3-.47c-1.25-.52-1.8-.93-1.67-1.24s-.44-1.64-1.74-3.72a25.29,25.29,0,0,1-1.68-2.52,4,4,0,0,1-.69-1.64c0-.82.55-1.2,2-1.16a6.18,6.18,0,0,1,3.38,1,8.68,8.68,0,0,1,1.63,1.44c.26.31.53.65.79,1a14.77,14.77,0,0,1,.87,1.27A8.43,8.43,0,0,0,59,200.47a1.47,1.47,0,0,0,1.56.35,4.81,4.81,0,0,0,2-1.65,3.57,3.57,0,0,0,.7-1.85,3.31,3.31,0,0,0-1.07-1.78,10.51,10.51,0,0,0-3.8-2.46A86.54,86.54,0,0,0,48,190a80.92,80.92,0,0,0-10.63-2,8.64,8.64,0,0,0-3.85.21c-.41.25-.3.63-.09,1.09a2.05,2.05,0,0,0,1.35,1c.66.19,1,.38.94.55s1,.84,3.17,2.3a30.45,30.45,0,0,1,5.47,4.73,38.51,38.51,0,0,1,2.68,3.56,1.63,1.63,0,0,1,.22,1.89c-.1.52-.37.74-.77.68a17.93,17.93,0,0,1-3-1.21,30.4,30.4,0,0,1-4.38-2.31c-.8-.56-1.11-1-1-1.41s-.76-1.59-2.81-3.32a29.38,29.38,0,0,0-3.3-2.43,35.76,35.76,0,0,0-3.69-2.13A26.74,26.74,0,0,0,23.1,189c-.7-.16-1.61-.27-2.75-.43a21.81,21.81,0,0,1-3.84-1.06l-.63.44c1,.43,2.38,1,4.15,1.63,3.37,1.21,5.55,1.82,6.64,2.27a17.46,17.46,0,0,1,2.83,1.43,11.34,11.34,0,0,1,2.36,2c.89.83,1,1.34.67,1.61a1.93,1.93,0,0,1-.4.23l-.81.21a15.86,15.86,0,0,1-2.5.44,25.47,25.47,0,0,1-2.76,0c.92.94,1.84,1.92,2.75,2.93a35.44,35.44,0,0,0,3.29,3.49,8,8,0,0,0,2.51.76c1.41.25,2.38.34,2.56.15,0,0,.8.54,2.37,1.69a9.17,9.17,0,0,1,2.7,2.52,3.32,3.32,0,0,1-.39,2.25c-.52.74-1,1-1.57.79s-1.18-.21-1.46.06-.65.08-1.29-.44a5.76,5.76,0,0,1-1.48-1.72,5.48,5.48,0,0,0-1.48-1.72,30.59,30.59,0,0,0-2.71-2.12,7.56,7.56,0,0,1-1.08-.76c-.13-.15-.05-.4.27-.7a.56.56,0,0,0,.12-.77,4.43,4.43,0,0,0-1-1.1l-3.78-3.43a28.83,28.83,0,0,0-2.22-1.89,17.23,17.23,0,0,0-1.65-1c-1-.51-1.88-.82-3-1.35-.38-.17-.68-.33-.93-.47a5.3,5.3,0,0,1-.63-.45,12.78,12.78,0,0,1-1.31-1.39c-.87-1-1.44-1.75-1.73-2.13s-.35-.6,0-.52c.19.06.32.05.52.1s.46.17.69.24l.66.31-2.39-2.06c-.4.32-.75.68-1.13,1l1.05,1.41c1.65,2.21,1.39,2.08-.51-.38l-.68-.9-.24.22.19.34c.83,1.48,1.76,3.22,2.64,5.23a29,29,0,0,0,1.57,3.34q.09.12.12.09c.22.15.25-.23-.07-1.28-.27-.84-.4-1.29-.28-1.23s.7.68,1.75,1.67,1.83,1.78,2.37,2.37,1.5,1.75,2.86,3.39S26.32,207.14,27,208s1.36,1.9,2.13,3.16c1.58,2.48,3.19,5.23,4.78,8.26.79,1.52,1.57,3.1,2.33,4.76s1.55,3.46,2.28,5.31c1.23,3.06,2.29,6,3.33,9.23a8.66,8.66,0,0,1,.64,3.61A6.48,6.48,0,0,1,42,244a17,17,0,0,1-1.12,2.42L27.45,246a5.78,5.78,0,0,0,2.12-1.42c1.51-1.3,2.24-2.11,2.25-2.53S31.19,240.59,30,239a17.38,17.38,0,0,1-2.09-3.28,2.22,2.22,0,0,0-1.05-1.31c-.46-.23-.79-.18-1,.19-.21.58-.71.46-1.4-.19A5.66,5.66,0,0,1,23,231.78c-.38-1.3-.4-2-.08-2.11s1.06-1.24,1.82-3.71l.91-2.88a4.58,4.58,0,0,1,.86-1.51c.56-.65,1.27-.32,2.13.83a6.13,6.13,0,0,1,1.27,3.26,11.41,11.41,0,0,1-.85,4.85,9.51,9.51,0,0,0-.73,2.78,1.53,1.53,0,0,0,.7,1.45,5.61,5.61,0,0,0,2.48.45,2.63,2.63,0,0,0,1.86-.62,3.35,3.35,0,0,0,.75-1.87,11.44,11.44,0,0,0-.48-4.56,88.1,88.1,0,0,0-4-10,80.39,80.39,0,0,0-5.06-9.53A8.11,8.11,0,0,0,22,205.75a.75.75,0,0,0-.91.58,2.32,2.32,0,0,0,.07,1.69c.26.63.3,1,.13,1s0,1.45.21,3.91a30.71,30.71,0,0,1-.25,7.3c-.33,1.35-.67,2.91-1.14,4.28a1.92,1.92,0,0,1-1.34,1.4.74.74,0,0,1-1.05-.27,17.28,17.28,0,0,1-.91-3.06,31.12,31.12,0,0,1-.93-4.87c-.06-1,.11-1.5.53-1.58s.76-1.67.86-4.28c0-.66,0-1.35,0-2.06s-.05-1.32-.12-2a38.93,38.93,0,0,0-.65-4.28,25.43,25.43,0,0,0-1.61-5.44c-.29-.61-.77-1.4-1.39-2.48a20.63,20.63,0,0,1-1.58-3.72c-.1-.28-.12-.42-.09-.44h0l-.52.53c.28,1,.69,2.37,1.26,4.1,1.1,3.23,2,5.45,2.34,6.56a13.84,13.84,0,0,1,.58,6.18c-.13,1.06-.39,1.74-.83,1.53a7.51,7.51,0,0,1-1.08-.63l-.88-.76c-.16-.14-.32-.28-.5-.42l-.55-.59c-.33-.37-.62-.62-.94-1l-.9-1.08c-.17,1.36-.37,2.62-.61,3.92a34.42,34.42,0,0,0-.7,4.79,9.17,9.17,0,0,0,1,2.46,5.74,5.74,0,0,0,1.55,2.05s.07,1,.15,2.92a8.45,8.45,0,0,1-.3,3.64,2.83,2.83,0,0,1-2.07,1.11c-.93.08-1.5,0-1.65-.69s-.56-1.09-1-1.12-.47-.44-.47-1.26a6,6,0,0,1,.42-2.24,5.51,5.51,0,0,0,.42-2.24,28,28,0,0,0,0-3.42,7.57,7.57,0,0,1-.08-1.31c0-.19.28-.3.72-.27a.6.6,0,0,0,.68-.35,4.16,4.16,0,0,0,.25-1.45c.07-1.15.17-2.82.31-5.1a27.49,27.49,0,0,0,.1-2.91c0-.45-.14-1.14-.29-1.94s-.46-1.8-.8-3.16a6.39,6.39,0,0,1-.21-1.8c0-.07,0-.19,0-.27a45,45,0,0,0-2.8,5c-.06.7-.13,1.33-.19,1.79-.12.83-.41,2.28-.83,4.36s-.74,3.51-1,4.54-.65,2.25-1.15,3.63c-.38,1.08-.81,2.19-1.24,3.31-1.22,26.62,19.31,53.87,36.21,64.43,23.12,14.75,66.16,15.54,99.64,11.56,29.09-3.19,62.57-17.54,76.51-35.87,12.85-16.77,16.75-40.57,17.67-67.22A149.41,149.41,0,0,1,218.58,217.56Zm-151.8-8.23c.82.08,1.36,0,1.59-.3l3.71,5.31A12.17,12.17,0,0,1,66,211C64.75,209.64,65,209.14,66.78,209.33ZM24.42,245.24c.25-1.83.84-1.82,1.81-.3Z"/></g></g></svg>